# xmcd
#
# Track frame offsets: 
#        150
#        31928
#        68935
#        106561
#        148284
#        215049
#        269443
#        301421
#
# Disc length: 4391 seconds
#
# Revision: 3
# Processed by: cddbd v1.5.2PL0 Copyright (c) Steve Scherf et al.
# Submitted via: ExactAudioCopy v1.0b1
#
DISCID=76112508
DTITLE=Various Artist - The 1. Blues Garage Sampler (Live)
DYEAR=2005
DGENRE=Blues
TTITLE0=Ian Parker Band - It Hurts A Man (Live)
TTITLE1=Charlie A'Court - Alone (Live)
TTITLE2=The Lizards - Down (Live)
TTITLE3=Birth Control - Like Nothing Ever Changed (Live)
TTITLE4=Wishbone Ash - Phoenix (Live)
TTITLE5=Doc Holliday - Simple Man (Live)
TTITLE6=Vanilla Fudge - Ticket To Ride (Live)
TTITLE7=Travers and Appice - Boom Boom (Out Goes The Lights) (Live)
EXTD=YEAR: 2005
EXTT0=
EXTT1=
EXTT2=
EXTT3=
EXTT4=
EXTT5=
EXTT6=
EXTT7=
PLAYORDER=
